# xmcd
#
# Track frame offsets: 
#        150
#        7366
#        36699
#        63508
#        82021
#        106876
#        116943
#        144835
#        174336
#
# Disc length: 2594 seconds
#
# Revision: 2
# Processed by: cddbd v1.5.2PL0 Copyright (c) Steve Scherf et al.
# Submitted via: ExactAudioCopy v0.95a5
#
DISCID=800a2009
DTITLE=Anterior - This Age Of Silence
DYEAR=2007
DGENRE=Metal
TTITLE0=Ghosts Of Dawn
TTITLE1=The Silent Divide
TTITLE2=Dead Divine
TTITLE3=Days Of Deliverance
TTITLE4=Human Hive
TTITLE5=Stir Of Echoes
TTITLE6=Scar City
TTITLE7=Seraph
TTITLE8=This Age Of Silence
EXTD=YEAR: 2007
EXTT0=
EXTT1=
EXTT2=
EXTT3=
EXTT4=
EXTT5=
EXTT6=
EXTT7=
EXTT8=
PLAYORDER=
